# xmcd
#
# Track frame offsets:
#	150
#	18037
#	36449
#	52665
#	70094
#	84830
#	105674
#	121295
#	138347
#	155646
#	169362
#	185376
#	201183
#	217406
#	232060
#	248480
#	267760
#	281605
#	300448
#
# Disc length: 4209 seconds
#
# Revision: 2
# Processed by: cddbd v1.5.2PL0 Copyright (c) Steve Scherf et al.
# Submitted via: audiograbber 1.83.01
#
DISCID=05106f13
DTITLE=Various Artist - Promo Only - Country Radio - July 2007
DYEAR=2007
DGENRE=Country
TTITLE0=Keith Urban - I Told You So
TTITLE1=Tim McGraw - I Need You (feat. Faith Hill)
TTITLE2=Gretchen Wilson - One Of The Boys
TTITLE3=Travis Tritt - You Never Take Me Dancing
TTITLE4=Steve Holy - Men But The Drinks (Girls Call The Shots)
TTITLE5=Keith Anderson - Sunday Morning In America
TTITLE6=17 - Aaron Russell - Silent Movie
TTITLE7=Leann Rimes - Nothin' Better To Do
TTITLE8=Sugarland - Everyday America
TTITLE9=Mark Wills - Days Of Thunder
TTITLE10=Martina McBride - How I Feel
TTITLE11=Whiskey Falls - Last Train Running
TTITLE12=Sarah Johns - The One In The Middle
TTITLE13=Jack Ingram - Measure Of A Man
TTITLE14=Cowboy Crush - Some Men
TTITLE15=Drew Kennedy - Take Me Home
TTITLE16=Brandi Valentine - Burnin' Bridges
TTITLE17=Travis Rush - Just For Tonight
TTITLE18=Levi - Crystal Ball
EXTD=
EXTT0=
EXTT1=
EXTT2=
EXTT3=
EXTT4=
EXTT5=
EXTT6=
EXTT7=
EXTT8=
EXTT9=
EXTT10=
EXTT11=
EXTT12=
EXTT13=
EXTT14=
EXTT15=
EXTT16=
EXTT17=
EXTT18=
PLAYORDER=
